<?xml version="1.0" standalone="no"?>
<!DOCTYPE svg PUBLIC "-//W3C//DTD SVG 20010904//EN"
 "http://www.w3.org/TR/2001/REC-SVG-20010904/DTD/svg10.dtd">
<svg version="1.0" xmlns="http://www.w3.org/2000/svg"
 width="140.000000pt" height="40.000000pt" viewBox="10 420 650 230.000000"
 preserveAspectRatio="xMidYMid meet">

<g transform="translate(0.000000,680.000000) scale(0.100000,-0.100000)"
fill="#000000" stroke="none">
<path d="M0 3400 l0 -3400 3745 0 3745 0 0 3400 0 3400 -3745 0 -3745 0 0
-3400z m3620 2894 c0 -3 -18 -26 -39 -50 -58 -67 -84 -127 -89 -209 -4 -90 18
-157 93 -270 30 -46 55 -88 55 -93 0 -5 -25 -29 -56 -53 -31 -24 -75 -68 -96
-97 l-40 -54 -44 71 c-185 297 -187 432 -11 604 89 87 227 179 227 151z m1409
-1020 c33 -91 37 -135 20 -196 -7 -27 -15 -38 -29 -38 -17 0 -20 7 -20 53 0
30 -9 70 -20 96 -28 62 -25 171 5 171 7 0 26 -39 44 -86z m-1729 72 c0 -3 -13
-26 -30 -53 -56 -91 -73 -155 -78 -302 -6 -174 14 -266 71 -328 27 -30 37 -29
37 2 0 15 6 25 14 25 8 0 19 12 24 28 5 15 13 35 17 45 7 17 3 18 -34 16 -32
-3 -45 1 -52 14 -9 15 -5 17 35 17 53 0 61 9 46 55 -8 24 -24 41 -51 57 -32
18 -39 27 -37 49 1 15 -6 36 -15 47 -17 19 -21 50 -11 88 6 24 227 139 250
130 20 -8 17 -45 -6 -88 -18 -34 -18 -40 -4 -95 18 -68 44 -125 61 -131 8 -2
7 10 -3 44 -23 78 -32 74 145 74 88 0 218 -5 288 -11 151 -13 401 -53 414 -66
6 -6 3 -30 -10 -64 -24 -67 -35 -145 -22 -153 5 -4 33 -11 62 -16 106 -20 129
-29 129 -51 0 -19 4 -20 33 -15 25 5 53 -2 114 -29 79 -34 113 -42 113 -27 0
4 -10 32 -21 62 -30 77 -30 197 -2 262 39 87 136 208 166 208 9 0 12 -26 13
-92 0 -80 3 -101 27 -150 15 -32 47 -82 71 -112 94 -115 126 -187 126 -287 l0
-57 103 -37 c56 -21 122 -47 147 -58 25 -10 79 -32 120 -47 41 -15 263 -100
492 -189 230 -88 422 -161 427 -161 38 0 12 -80 -295 -928 -15 -40 -17 -42
-33 -28 -15 14 -110 56 -510 228 -63 26 -119 47 -124 45 -8 -2 -42 -106 -59
-176 -3 -14 60 -42 406 -183 109 -44 209 -80 222 -80 13 0 24 -4 24 -8 0 -11
-99 -299 -155 -450 -26 -69 -56 -153 -68 -187 l-21 -63 -150 -2 -151 -3 -3
-161 c-2 -135 0 -163 13 -174 22 -18 22 -295 0 -308 -13 -7 -15 -33 -13 -168
l3 -159 358 -3 357 -2 0 -40 c0 -21 -5 -42 -12 -46 -13 -8 -1366 -6 -1379 2
-5 3 -9 23 -9 44 l0 40 313 2 312 3 0 190 0 190 -52 3 -53 3 4 57 c2 31 4 76
5 99 l1 42 48 3 47 3 0 190 0 190 -310 0 -310 0 -3 -164 c-2 -139 0 -166 13
-173 22 -13 22 -296 0 -304 -12 -5 -15 -28 -15 -120 0 -69 -4 -114 -10 -114
-5 0 -10 9 -10 20 0 11 -7 20 -15 20 -12 0 -15 17 -15 90 0 79 -2 91 -20 100
-15 8 -20 21 -20 56 0 25 -5 54 -10 64 -7 13 -7 21 0 25 6 4 10 71 10 168 l0
162 -87 87 -88 87 -95 3 -95 3 -5 28 -5 27 -40 -27 c-36 -25 -50 -28 -150 -33
l-110 -5 -3 -67 c-3 -72 -6 -77 -71 -102 -25 -10 -57 -26 -71 -36 -42 -30 -55
-29 -56 5 0 17 -1 69 -2 118 l-2 87 -200 0 -200 0 -19 31 c-11 18 -54 114 -97
215 -44 106 -83 184 -90 184 -15 0 -16 4 -69 235 -61 264 -74 306 -125 400
-60 113 -83 189 -84 285 -1 127 38 214 161 353 l31 36 113 -50 c62 -27 118
-49 124 -49 6 0 26 -8 45 -18 19 -9 55 -23 80 -31 25 -7 57 -19 71 -27 27 -14
64 -27 204 -69 50 -16 95 -32 100 -37 6 -5 11 -89 11 -206 1 -157 6 -218 23
-302 32 -160 36 -241 16 -344 -9 -50 -23 -106 -31 -125 -15 -37 -12 -50 8 -34
16 13 124 57 281 114 105 39 117 46 117 67 0 69 -37 263 -91 480 -34 134 -59
246 -55 249 6 6 113 -30 216 -72 148 -60 266 -105 278 -105 27 0 9 18 -40 40
-29 13 -107 49 -173 80 -66 31 -136 63 -155 70 -19 8 -37 17 -40 20 -3 3 -30
17 -60 29 -30 13 -125 57 -210 98 -236 114 -333 160 -625 298 -172 81 -706
347 -825 411 -69 37 -145 78 -170 91 -25 13 -83 50 -130 82 -79 53 -86 61
-103 112 -14 40 -19 87 -20 186 -1 83 -6 133 -12 133 -6 0 -21 -7 -33 -16 -23
-16 -32 -4 -9 14 36 29 56 24 209 -54 179 -90 499 -254 646 -330 97 -51 132
-64 132 -46 0 4 -25 40 -55 80 -76 103 -95 159 -95 282 0 81 5 112 25 165 31
82 72 143 135 197 70 61 190 126 190 104z m-1224 -454 c-18 -16 -18 -16 -6 6
6 13 14 21 18 18 3 -4 -2 -14 -12 -24z m-19 -64 c-3 -8 -6 -5 -6 6 -1 11 2 17
5 13 3 -3 4 -12 1 -19z m88 -366 c-3 -3 -11 0 -18 7 -9 10 -8 11 6 5 10 -3 15
-9 12 -12z m279 -184 c22 -13 43 -25 46 -28 5 -5 11 -9 90 -56 60 -36 154 -97
160 -104 3 -3 58 -32 123 -64 66 -33 117 -64 117 -72 0 -8 -18 -50 -40 -93
-70 -140 -76 -182 -101 -661 -20 -368 -21 -447 -11 -540 11 -96 57 -291 82
-345 11 -23 70 -184 70 -191 0 -2 -37 -4 -81 -4 l-82 0 -88 -87 -89 -87 0
-142 c0 -129 -2 -144 -18 -153 -11 -6 -23 -31 -31 -63 -10 -48 -21 -63 -95
-137 l-83 -82 -54 3 c-58 3 -67 14 -55 64 6 22 12 24 59 24 l52 0 88 88 87 87
0 154 0 153 -90 89 -91 89 -172 0 -172 0 -16 48 c-51 145 -174 497 -219 622
-28 80 -93 267 -145 415 -51 149 -121 349 -155 445 -92 261 -95 270 -79 285
13 11 179 79 359 145 41 15 167 64 280 108 212 82 289 111 304 112 4 0 27 -10
50 -22z m-1281 -2180 c3 -11 3 -65 0 -119 -5 -89 -7 -96 -19 -74 -9 17 -10 34
-4 56 7 23 6 35 -5 46 -17 16 -21 108 -5 98 6 -3 10 -1 10 4 0 20 18 11 23
-11z m1119 -75 c-51 -2 -132 -2 -180 0 -48 1 -6 3 93 3 99 0 138 -2 87 -3z
m681 0 c-18 -2 -48 -2 -65 0 -18 2 -4 4 32 4 36 0 50 -2 33 -4z m147 3 c0 -2
-13 -6 -30 -8 -16 -3 -30 -1 -30 4 0 4 14 8 30 8 17 0 30 -2 30 -4z m648 -3
c-27 -2 -69 -2 -95 0 -27 2 -5 3 47 3 52 0 74 -1 48 -3z m745 0 c-46 -2 -120
-2 -165 0 -46 1 -9 3 82 3 91 0 128 -2 83 -3z m809 0 c-51 -2 -132 -2 -180 0
-48 1 -6 3 93 3 99 0 138 -2 87 -3z m451 0 c-13 -2 -33 -2 -45 0 -13 2 -3 4
22 4 25 0 35 -2 23 -4z m60 0 c-7 -2 -19 -2 -25 0 -7 3 -2 5 12 5 14 0 19 -2
13 -5z m260 0 c-13 -2 -33 -2 -45 0 -13 2 -3 4 22 4 25 0 35 -2 23 -4z m70 0
c-7 -2 -21 -2 -30 0 -10 3 -4 5 12 5 17 0 24 -2 18 -5z m575 0 c-10 -2 -26 -2
-35 0 -10 3 -2 5 17 5 19 0 27 -2 18 -5z m-6030 -70 c-2 -32 -7 -47 -15 -45
-14 2 -16 -11 -15 -98 1 -123 2 -150 10 -150 7 1 142 221 142 232 0 3 -9 8
-20 11 -16 4 -20 14 -20 51 l0 47 108 -3 107 -3 0 -45 c0 -43 -1 -45 -32 -48
-29 -3 -38 -14 -107 -129 -42 -69 -76 -133 -76 -142 0 -9 23 -52 50 -96 27
-44 61 -101 76 -127 24 -43 31 -48 61 -48 l34 0 -3 -47 -3 -48 -100 0 -100 0
-3 48 c-2 37 0 47 12 47 9 0 16 3 16 6 0 10 -81 143 -95 154 -19 16 -53 -47
-56 -107 -3 -39 0 -48 14 -51 15 -3 17 -12 15 -50 l-3 -47 -77 -3 -78 -3 0 51
c0 38 4 50 15 50 13 0 15 37 15 270 0 233 -2 270 -15 270 -11 0 -15 12 -15 50
l0 50 81 0 80 0 -3 -47z m982 -4 c27 -28 50 -60 51 -72 1 -12 0 -60 -1 -107
-1 -68 -5 -89 -21 -106 -24 -25 -24 -30 1 -61 17 -22 20 -41 20 -132 l0 -105
-52 -53 -52 -53 -168 0 -168 0 0 49 c0 34 4 51 15 55 23 8 23 524 0 532 -11 4
-15 21 -15 55 l0 49 170 0 170 0 50 -51z m737 -1 l53 -52 0 -107 0 -106 -54
-52 -55 -51 -105 0 -106 0 0 -105 c0 -85 3 -107 15 -111 11 -4 15 -21 15 -55
l0 -49 -80 0 -80 0 0 50 c0 38 4 50 15 50 13 0 15 37 15 270 0 233 -2 270 -15
270 -11 0 -15 12 -15 50 l0 50 172 0 172 0 53 -52z m619 31 c23 -22 44 -19 44
7 0 10 12 14 45 14 51 0 49 4 45 -105 -1 -38 -6 -72 -11 -76 -15 -9 -79 2 -81
15 -1 6 -2 22 -2 36 l-1 25 -108 0 -109 0 0 -80 c0 -44 1 -92 1 -107 l1 -28
105 0 105 0 50 -48 50 -48 0 -109 0 -109 -52 -53 -52 -53 -100 0 -100 0 -53
52 c-51 50 -53 55 -53 106 l0 53 48 -3 47 -3 3 -52 3 -53 105 0 c57 0 104 3
105 8 0 4 1 52 1 107 l1 100 -104 3 -104 3 -52 52 -53 51 0 106 0 105 48 52
47 51 79 1 c68 1 83 -2 102 -20z m764 -27 c0 -26 -4 -52 -9 -57 -4 -6 20 -123
57 -272 56 -225 68 -263 84 -263 15 0 18 -8 18 -50 l0 -50 -80 0 -80 0 0 49
c0 29 5 51 12 53 9 3 8 17 -3 59 l-14 54 -70 3 c-39 1 -76 -2 -83 -7 -15 -9
-20 -84 -12 -161 l5 -45 -83 -3 -82 -3 0 50 c0 44 3 50 22 53 20 3 27 21 65
178 72 294 84 355 73 358 -5 2 -10 26 -10 53 l0 49 95 0 95 0 0 -48z m837 -4
l53 -52 0 -103 0 -102 -41 -41 c-46 -46 -48 -35 19 -108 19 -21 22 -36 22
-103 0 -65 3 -79 16 -79 12 0 14 -10 12 -47 l-3 -48 -77 -3 -78 -3 0 51 c0 38
4 50 15 50 12 0 15 19 15 110 l0 110 -110 0 -110 0 0 -110 c0 -91 3 -110 15
-110 11 0 15 -12 15 -50 l0 -50 -80 0 -80 0 0 50 c0 38 4 50 15 50 13 0 15 37
15 270 0 233 -2 270 -15 270 -11 0 -15 12 -15 50 l0 50 172 0 172 0 53 -52z
m763 -24 l0 -75 -47 3 c-41 3 -48 6 -51 26 -3 21 -8 22 -83 22 l-79 0 0 -110
0 -110 80 0 80 0 0 -50 0 -50 -80 0 -80 0 0 -110 0 -110 79 0 c75 0 80 1 83
23 3 19 10 22 51 25 l47 3 0 -75 0 -76 -195 0 -195 0 0 49 c0 34 4 51 15 55
13 5 15 44 15 271 0 229 -2 265 -15 265 -11 0 -15 12 -15 50 l0 50 195 0 195
0 0 -76z m429 49 c7 -16 40 -91 73 -168 113 -267 121 -284 130 -279 4 3 8 86
8 185 0 150 -2 181 -15 185 -11 4 -15 21 -15 55 l0 49 80 0 80 0 0 -50 c0 -38
-4 -50 -15 -50 -13 0 -15 -37 -15 -270 0 -238 2 -270 16 -270 12 0 14 -10 12
-47 l-3 -48 -64 0 c-47 0 -66 4 -72 15 -4 8 -49 113 -100 233 -51 120 -96 220
-101 223 -4 3 -8 -81 -8 -185 0 -163 2 -191 15 -191 11 0 15 -12 15 -50 l0
-50 -80 0 -80 0 0 50 c0 38 4 50 15 50 13 0 15 37 15 270 0 233 -2 270 -15
270 -11 0 -15 12 -15 50 l0 50 63 0 c60 0 65 -2 76 -27z m971 -16 c0 -24 -5
-48 -11 -54 -8 -8 5 -76 45 -244 74 -311 69 -293 95 -297 20 -3 22 -8 19 -50
l-3 -47 -74 -3 c-53 -2 -77 1 -82 10 -12 18 -11 88 1 88 15 0 12 45 -4 85
l-15 35 -70 0 c-79 0 -84 -4 -96 -77 -5 -30 -3 -43 5 -43 7 0 10 -17 8 -47
l-3 -48 -77 -3 -78 -3 0 49 c0 40 4 51 19 55 15 4 30 50 81 262 45 180 61 262
54 273 -5 10 -8 36 -6 60 l3 42 95 0 94 0 0 -43z m-1427 -134 c-13 -2 -35 -2
-50 0 -16 2 -5 4 22 4 28 0 40 -2 28 -4z m-1889 -21 c6 -10 -64 -303 -77 -319
-5 -7 -19 -13 -32 -13 -20 0 -22 -6 -28 -82 -4 -46 -7 -108 -8 -138 -1 -42 -3
-48 -8 -26 -3 17 -9 30 -12 30 -3 1 -27 -24 -54 -54 -27 -30 -70 -76 -96 -102
l-47 -48 -158 0 -158 0 -83 83 c-78 78 -83 86 -83 125 0 23 3 42 8 42 4 0 43
-36 86 -80 l78 -80 153 0 153 0 86 88 86 87 0 157 c0 153 -1 157 -25 187 l-26
30 23 3 c20 3 23 10 26 48 4 71 2 70 101 70 49 0 92 -4 95 -8z m643 -14 c22
-21 23 -28 23 -164 0 -118 -3 -145 -15 -152 -13 -7 -15 -33 -13 -168 l3 -159
358 -3 c275 -2 357 -5 357 -15 0 -6 3 -28 6 -47 l6 -35 -59 1 c-32 1 -196 2
-365 3 l-307 1 -6 35 c-3 19 -8 52 -12 73 l-6 37 -8 -45 c-4 -25 -12 -57 -18
-72 l-10 -27 -348 -3 c-191 -2 -353 -2 -359 0 -13 3 -26 66 -18 85 3 9 94 11
369 9 l365 -2 0 164 0 165 -32 3 -33 3 -37 145 c-52 205 -56 190 49 190 75 0
90 -3 110 -22z m-3680 -79 c1 -35 -1 -56 -4 -46 -2 9 -9 17 -14 17 -5 0 -9 23
-9 51 0 36 4 49 13 47 8 -3 13 -28 14 -69z m671 48 c2 -10 1 -29 -2 -43 -6
-21 -12 -24 -52 -24 -60 0 -82 -13 -104 -63 l-19 -41 -11 25 c-10 22 -7 33 30
92 35 55 47 67 73 70 58 8 82 3 85 -16z m5162 -21 c0 -25 -4 -48 -10 -51 -6
-4 -10 13 -10 44 0 28 5 51 10 51 6 0 10 -20 10 -44z m-260 -107 c0 -6 -4 -7
-10 -4 -5 3 -10 11 -10 16 0 6 5 7 10 4 6 -3 10 -11 10 -16z m-173 -11 c-3 -8
-6 -5 -6 6 -1 11 2 17 5 13 3 -3 4 -12 1 -19z m-3183 -14 c4 -10 1 -14 -6 -12
-15 5 -23 28 -10 28 5 0 13 -7 16 -16z m199 -111 c-13 -2 -35 -2 -50 0 -16 2
-5 4 22 4 28 0 40 -2 28 -4z m2535 -60 c-21 -2 -57 -2 -80 0 -24 2 -7 4 37 4
44 0 63 -2 43 -4z m-3558 -172 c0 -30 -29 -72 -112 -158 l-50 -53 -254 0 -254
0 0 45 0 45 256 0 257 0 76 75 c42 41 77 75 79 75 1 0 2 -13 2 -29z m1183 -28
c-23 -2 -64 -2 -90 0 -26 2 -7 3 42 3 50 0 71 -1 48 -3z m480 0 c-7 -2 -21 -2
-30 0 -10 3 -4 5 12 5 17 0 24 -2 18 -5z m335 0 c-10 -2 -28 -2 -40 0 -13 2
-5 4 17 4 22 1 32 -1 23 -4z m85 0 c-13 -2 -33 -2 -45 0 -13 2 -3 4 22 4 25 0
35 -2 23 -4z m725 0 c-10 -2 -28 -2 -40 0 -13 2 -5 4 17 4 22 1 32 -1 23 -4z
m425 0 c-7 -2 -19 -2 -25 0 -7 3 -2 5 12 5 14 0 19 -2 13 -5z m1104 1 c-3 -3
-12 -4 -19 -1 -8 3 -5 6 6 6 11 1 17 -2 13 -5z m-5532 -103 c89 0 126 -8 103
-22 -10 -7 -9 -9 3 -9 9 0 22 -6 28 -14 8 -10 42 -13 131 -13 65 0 117 4 114
8 -2 4 5 11 17 14 15 5 18 9 9 15 -8 5 -1 11 21 19 18 6 34 10 36 8 2 -2 4
-21 6 -43 l2 -39 -345 0 -345 0 -3 44 -3 43 73 -5 c40 -4 109 -6 153 -6z
m1657 -18 c9 -63 14 -61 -190 -65 -103 -2 -193 1 -199 6 -7 4 -13 26 -13 47
l0 39 199 0 199 0 4 -27z m4764 2 c3 -14 4 -35 1 -47 l-6 -23 -343 3 c-189 1
-351 2 -360 2 -15 0 -18 9 -18 45 l0 45 360 0 360 0 6 -25z m-2209 -117 c-3
-8 -6 -5 -6 6 -1 11 2 17 5 13 3 -3 4 -12 1 -19z m0 -100 c-3 -8 -6 -5 -6 6
-1 11 2 17 5 13 3 -3 4 -12 1 -19z m-3880 -130 c-2 -13 -4 -5 -4 17 -1 22 1
32 4 23 2 -10 2 -28 0 -40z m573 -18 c0 -21 -54 -50 -92 -50 -23 0 -21 34 2
36 35 2 40 5 40 19 0 9 9 15 25 15 18 0 25 -5 25 -20z m1810 -3 c0 -19 -8 -26
-39 -35 -59 -18 -74 -16 -67 11 3 12 6 28 6 35 0 8 17 12 50 12 46 0 50 -2 50
-23z m390 8 c0 -9 -6 -12 -15 -9 -8 4 -15 10 -15 15 0 5 7 9 15 9 8 0 15 -7
15 -15z m240 5 c0 -5 -4 -10 -10 -10 -5 0 -10 5 -10 10 0 6 5 10 10 10 6 0 10
-4 10 -10z m180 -10 c0 -23 -29 -27 -48 -8 -19 19 -14 28 18 28 23 0 30 -4 30
-20z m1040 11 c0 -19 -12 -41 -23 -41 -6 0 -7 3 -4 6 3 4 2 15 -4 25 -8 16 -6
19 11 19 11 0 20 -4 20 -9z m1700 -3 c0 -7 -5 -20 -10 -28 -9 -13 -11 -13 -20
0 -16 24 -12 40 10 40 11 0 20 -6 20 -12z m-1765 -48 c-3 -5 -12 -10 -20 -10
-8 0 -17 5 -20 10 -4 6 5 10 20 10 15 0 24 -4 20 -10z m-4385 -36 c0 -8 -5
-12 -10 -9 -6 4 -8 11 -5 16 9 14 15 11 15 -7z m5760 -6 c0 -14 -40 -58 -52
-58 -15 0 -8 23 14 47 24 25 38 29 38 11z m-132 -26 c8 -13 10 -22 4 -22 -13
0 -42 28 -42 42 0 15 22 4 38 -20z m-4878 -36 c0 -28 4 -35 23 -39 12 -2 -1
-5 -30 -6 -59 -1 -65 4 -57 48 6 26 11 31 35 31 26 0 29 -3 29 -34z m1810 10
c0 -13 3 -31 6 -40 5 -13 -2 -16 -35 -16 -43 0 -48 8 -35 58 5 16 14 22 35 22
24 0 29 -4 29 -24z m384 9 c-4 -8 -8 -15 -10 -15 -2 0 -4 7 -4 15 0 8 4 15 10
15 5 0 7 -7 4 -15z m1466 -6 c0 -35 -19 -59 -47 -59 -21 0 -24 3 -19 23 3 12
6 30 6 40 0 12 8 17 30 17 24 0 30 -4 30 -21z m1690 -1 c0 -28 -10 -42 -32
-51 -15 -5 -18 0 -18 33 0 36 3 40 25 40 19 0 25 -5 25 -22z m-6165 -8 c3 -5
1 -10 -4 -10 -6 0 -11 5 -11 10 0 6 2 10 4 10 3 0 8 -4 11 -10z m2993 -32 c-7
-20 -48 -23 -48 -4 0 11 9 16 26 16 16 0 24 -5 22 -12z m-1755 -15 c-7 -2 -19
-2 -25 0 -7 3 -2 5 12 5 14 0 19 -2 13 -5z m956 -53 c22 0 43 8 58 22 28 27
41 17 20 -15 -27 -42 -48 -57 -75 -57 -34 0 -92 51 -92 80 0 20 1 20 27 -5 19
-17 39 -25 62 -25z m-704 20 c25 -28 91 -27 122 2 33 31 31 -1 -3 -41 -36 -43
-80 -42 -123 1 -30 30 -40 58 -23 58 5 0 17 -9 27 -20z m-1555 -45 c0 -20 -5
-25 -24 -25 -13 0 -26 6 -29 13 -7 22 4 37 29 37 19 0 24 -5 24 -25z m138 3
c-2 -17 -11 -24 -30 -26 -24 -3 -28 0 -28 22 0 22 4 26 31 26 26 0 30 -3 27
-22z m262 -3 c0 -20 -5 -25 -24 -25 -22 0 -36 16 -36 41 0 5 14 9 30 9 25 0
30 -4 30 -25z m140 -1 c0 -20 -5 -24 -30 -24 -25 0 -30 4 -30 23 0 20 5 24 30
25 25 1 30 -3 30 -24z m377 11 c5 -16 -56 -35 -109 -35 -37 0 -47 4 -51 19 -3
11 -3 21 -2 23 9 9 159 2 162 -7z m391 -7 c-3 -21 -9 -23 -79 -26 -63 -2 -78
0 -83 14 -11 28 3 34 85 34 78 0 80 -1 77 -22z m1420 0 c-3 -21 -9 -23 -80
-26 -72 -3 -78 -1 -78 17 0 25 12 29 93 30 65 1 68 0 65 -21z m380 -1 c-3 -20
-10 -22 -74 -25 -59 -2 -73 0 -78 13 -10 28 1 33 80 33 71 0 75 -1 72 -21z
m362 -3 c0 -26 -17 -35 -42 -22 -30 15 -22 43 12 44 25 1 30 -3 30 -22z m600
1 c0 -21 -5 -25 -30 -25 -25 0 -30 4 -30 23 0 18 6 23 30 25 26 2 30 -1 30
-23z m117 14 c16 -16 5 -39 -18 -39 -12 0 -19 7 -19 18 0 31 17 41 37 21z
m393 4 c-1 -27 -23 -38 -88 -41 -59 -4 -70 -2 -76 14 -4 10 -1 21 6 26 16 10
158 11 158 1z m630 -1 c0 -13 -42 -28 -67 -24 -38 6 -26 21 20 25 23 2 43 4
45 5 1 1 2 -2 2 -6z m282 2 c14 -13 -6 -44 -27 -44 -23 0 -40 24 -29 41 6 10
47 12 56 3z m331 -3 c4 0 7 -10 7 -21 0 -25 -45 -28 -54 -4 -12 31 -5 34 47
25z m457 0 c0 -35 -13 -41 -91 -41 -78 0 -79 0 -79 25 0 25 1 25 85 25 47 0
85 -4 85 -9z m-1190 -5 c0 -2 -7 -9 -15 -16 -12 -10 -15 -10 -15 4 0 9 7 16
15 16 8 0 15 -2 15 -4z"/>
<path d="M3340 5057 c-51 -20 -55 -25 -58 -57 -3 -33 0 -37 42 -58 40 -19 47
-27 57 -68 7 -25 17 -48 24 -50 6 -3 48 -4 93 -2 l82 3 -50 53 c-41 43 -54 67
-72 128 -25 85 -29 87 -118 51z"/>
<path d="M3395 4780 c-3 -6 -17 -41 -30 -79 l-23 -70 26 -35 c25 -32 76 -66
100 -66 5 0 22 35 37 78 16 42 36 97 46 121 11 24 16 47 13 52 -7 12 -161 11
-169 -1z"/>
<path d="M4330 4686 c-5 -15 -10 -30 -10 -32 0 -3 -18 -44 -41 -91 -22 -46
-39 -87 -37 -89 3 -2 18 -6 34 -10 30 -6 31 -5 84 110 29 64 51 118 48 121 -2
3 -19 8 -36 11 -28 6 -33 3 -42 -20z"/>
<path d="M4395 4578 c-29 -62 -50 -116 -46 -120 4 -4 21 -10 38 -14 28 -6 34
-2 71 47 58 78 74 115 67 150 -7 32 -9 34 -48 43 -27 7 -29 4 -82 -106z"/>
<path d="M3531 4582 c-6 -12 -11 -30 -11 -41 0 -18 6 -21 45 -21 25 0 45 4 45
8 0 4 -15 23 -34 41 -33 32 -34 33 -45 13z"/>
<path d="M3546 4468 c78 -95 223 -206 322 -248 57 -25 57 -25 66 5 5 16 -7 29
-57 67 -34 25 -99 81 -145 122 l-83 76 -61 0 -61 0 19 -22z"/>
<path d="M4230 4432 c0 -5 8 -16 19 -26 17 -15 19 -15 31 0 12 13 11 17 -1 25
-18 11 -49 12 -49 1z"/>
<path d="M4316 4405 c-4 -10 1 -15 14 -15 11 0 20 7 20 15 0 8 -6 15 -14 15
-8 0 -16 -7 -20 -15z"/>
<path d="M4178 4315 c-5 -87 -27 -110 -101 -110 -28 1 -67 5 -84 9 -27 7 -33
6 -33 -8 0 -9 10 -20 23 -25 40 -15 156 -22 177 -11 28 15 53 108 45 165 -10
65 -22 56 -27 -20z"/>
<path d="M3790 4200 c91 -81 220 -120 295 -89 l30 12 -45 9 c-110 21 -176 40
-248 73 l-77 35 45 -40z"/>
<path d="M4754 3573 c2 -10 8 -53 12 -95 3 -43 8 -78 10 -78 2 0 18 9 36 20
25 15 33 27 34 52 0 18 4 43 8 55 6 19 1 24 -40 42 -57 26 -67 26 -60 4z"/>
<path d="M4680 3022 c0 -15 -110 -130 -145 -152 -74 -46 -65 -91 41 -189 96
-90 149 -123 207 -129 l50 -5 83 89 c46 49 84 94 84 100 0 6 -35 21 -77 34
-78 23 -127 46 -203 96 -36 24 -41 31 -35 53 14 63 17 111 6 111 -6 0 -11 -4
-11 -8z"/>
<path d="M4893 2926 c21 -16 214 -81 270 -90 76 -14 33 10 -86 47 -67 21 -132
43 -145 48 -13 5 -31 9 -40 9 -16 -1 -15 -2 1 -14z"/>
<path d="M1400 1790 l0 -110 104 0 c74 0 105 4 108 13 3 6 4 55 4 107 l-1 95
-107 3 -108 3 0 -111z"/>
<path d="M1399 1576 c-2 -2 -3 -52 -1 -110 l3 -106 104 0 c73 0 104 4 107 13
3 6 4 55 4 107 l-1 95 -106 3 c-58 1 -107 1 -110 -2z"/>
<path d="M2132 1793 l3 -108 108 -3 107 -3 0 111 0 110 -110 0 -111 0 3 -107z"/>
<path d="M3670 1728 c-6 -24 -15 -59 -21 -78 -17 -66 -14 -70 42 -70 43 0 50
2 45 18 -2 9 -12 50 -22 90 -9 40 -20 75 -25 78 -4 2 -13 -15 -19 -38z m17
-60 c-3 -8 -6 -5 -6 6 -1 11 2 17 5 13 3 -3 4 -12 1 -19z"/>
<path d="M4350 1790 l0 -110 110 0 111 0 -3 108 -3 107 -107 3 -108 3 0 -111z"/>
<path d="M6670 1766 c0 -8 -30 -151 -36 -168 -5 -16 2 -18 45 -18 29 0 51 5
51 10 0 27 -44 180 -51 180 -5 0 -9 -2 -9 -4z"/>
</g>
</svg>
